<svg width="1881" height="830" viewBox="0 0 1881 830" fill="none" xmlns="http://www.w3.org/2000/svg">
<g clip-path="url(#clip0_13_37)">
<path fill-rule="evenodd" clip-rule="evenodd" d="M0 1.54972e-06H226.285C332.031 1.54972e-06 417.756 85.7248 417.756 191.472L417.756 638.239C417.756 743.986 332.031 829.71 226.285 829.71C120.538 829.71 0 829.71 0 829.71L0 1.54972e-06ZM250.715 191.472C250.715 217.107 250.715 612.603 250.715 638.239C250.715 663.874 229.933 684.656 204.297 684.656H168.206L168.206 145.054C168.206 145.054 178.662 145.054 204.297 145.054C229.933 145.054 250.715 165.836 250.715 191.472Z" fill="white"/>
<path d="M612.129 194.373L612.129 829.71L467.075 829.71L467.075 194.373L612.129 194.373Z" fill="white"/>
<path fill-rule="evenodd" clip-rule="evenodd" d="M661.448 646.901C661.448 747.864 740.678 829.71 838.414 829.71C936.149 829.71 1015.38 747.864 1015.38 646.901V377.182C1015.38 276.219 936.149 194.373 838.414 194.373C740.678 194.373 661.448 276.219 661.448 377.182V646.901ZM870.326 646.901V377.182C870.326 358.976 856.038 344.217 838.414 344.217C820.789 344.217 806.502 358.976 806.502 377.182V646.901C806.502 665.107 820.789 679.867 838.414 679.867C856.038 679.867 870.326 665.107 870.326 646.901Z" fill="white"/>
<path d="M1015.38 5.12478e-05L1015.38 145.054L467.075 145.054L467.075 9.91821e-05L1015.38 5.12478e-05Z" fill="white"/>
<path d="M1300.36 383.316C1300.36 359.199 1280.81 339.648 1256.7 339.648H1211.41V426.985H1256.7C1280.81 426.985 1300.36 407.434 1300.36 383.316ZM1445.93 383.316C1445.93 440.177 1420.85 491.178 1381.15 525.866C1420.86 560.697 1445.93 611.811 1445.93 668.782V829.71H1300.36V668.782C1300.36 644.218 1280.45 624.304 1255.89 624.304H1211.41V829.71H1065.85V194.084H1256.7C1361.21 194.084 1445.93 278.807 1445.93 383.316Z" fill="white"/>
<path d="M1735.44 462.356C1735.44 404.541 1695.45 356.066 1641.63 343.072V478.741H1735.44V462.356ZM1881 829.71H1735.44V624.304H1641.63V829.71H1496.07V194.084H1612.73C1760.89 194.085 1881 314.194 1881 462.356V829.71Z" fill="white"/>
</g>
<defs>
<clipPath id="clip0_13_37">
<rect width="1881" height="830" fill="white"/>
</clipPath>
</defs>
</svg>
