<svg width="1080" height="1080" viewBox="0 0 1080 1080" fill="none" xmlns="http://www.w3.org/2000/svg">
<g clip-path="url(#clip0_3_738)">
<path d="M810 0C959.117 0 1080 120.883 1080 270C1080 419.117 959.117 540 810 540C660.883 540 540 419.117 540 270C540 120.883 660.883 0 810 0ZM810 124C729.366 124 664 189.366 664 270C664 350.634 729.366 416 810 416C890.634 416 956 350.634 956 270C956 189.366 890.634 124 810 124Z" fill="#00BA97"/>
<path d="M810 540H540V810L810 540Z" fill="#F52041"/>
<path d="M810 810H540V1080L810 810Z" fill="#F52041"/>
<path d="M1080 810H810V1080L1080 810Z" fill="#F52041"/>
<path d="M1080 540H810V810L1080 540Z" fill="#F52041"/>
<path d="M267.5 540C300.734 706.872 367.16 773.945 535 807.5C367.12 841.055 300.694 908.128 267.5 1075C234.266 908.128 167.84 841.015 0 807.5C167.878 773.945 234.306 706.872 267.5 540Z" fill="#F3A425"/>
<path d="M207.612 143.5C207.612 156.819 195.171 167.617 179.825 167.617C164.479 167.617 152.039 156.819 152.039 143.5C152.039 130.181 164.479 119.384 179.825 119.384C195.171 119.384 207.612 130.181 207.612 143.5Z" fill="#008DD3"/>
<path d="M388.598 145.641C388.598 157.626 375.945 167.342 360.336 167.342C344.728 167.342 332.075 157.626 332.075 145.641C332.075 133.656 344.728 123.94 360.336 123.94C375.945 123.94 388.598 133.656 388.598 145.641Z" fill="#008DD3"/>
<path d="M360.336 369.003C371.371 369.003 380.927 373.86 385.581 380.94C388.754 384.696 391.556 391.137 398.275 410.687C403.805 426.775 413.3 456.082 436.246 479.118C461.851 504.824 496.803 516.558 540 516.558V540H0V375.004C16.5953 375.004 21.0408 379.36 23.251 381.589C28.5154 386.898 32.8599 395.207 41.7373 414.877C48.9784 430.921 60.6263 458.013 82.1963 479.304C106.662 503.452 139.324 516.558 180.89 516.558C222.583 516.558 255.356 503.261 279.376 477.954C300.066 456.156 310.63 428.258 316.937 413.045C324.864 393.922 328.919 386.442 333.593 381.903C334.029 381.48 334.649 380.882 335.592 380.212C340.408 373.528 349.684 369.003 360.336 369.003ZM361.368 129.94C381.94 130.089 385.089 135.31 385.125 135.356C388.497 139.047 391.235 145.141 398.275 165.624C403.805 181.712 413.3 211.019 436.246 234.056C461.851 259.761 496.803 271.495 540 271.495V411.558C516.354 411.558 511.329 405.712 510.638 405.018C507.289 401.655 504.168 395.743 497.574 376.558C492.49 361.766 483.597 332.528 462.64 309.592C438.333 282.99 404.425 270.312 362.127 270.006C319.66 269.699 285.79 281.965 260.447 306.572C237.875 328.49 226.732 356.455 219.941 372.834C211.53 393.123 207.855 400.785 203.219 405.67C202.176 406.769 199.644 409.859 189.835 411.064C186.729 412.106 183.354 412.679 179.825 412.679C175.708 412.679 171.801 411.901 168.286 410.507C160.626 409.009 157.657 406.254 155.957 404.576C150.638 399.326 146.172 391.028 137.441 371.685C130.348 355.967 118.863 328.887 97.8086 307.655C73.6999 283.343 41.3366 270.004 0 270.004V129.941C16.5952 129.941 21.0408 134.298 23.251 136.526C28.5155 141.835 32.8599 150.144 41.7373 169.814C48.9783 185.859 60.6262 212.95 82.1963 234.241C106.662 258.39 139.324 271.495 180.89 271.495C222.583 271.495 255.356 258.199 279.376 232.892C300.066 211.093 310.63 183.195 316.937 167.982C324.864 148.86 328.919 141.379 333.593 136.841C335.496 134.992 340.923 129.793 361.368 129.94ZM540 166.495C516.352 166.495 511.328 160.649 510.638 159.955C507.289 156.593 504.168 150.681 497.574 131.495C492.49 116.704 483.597 87.465 462.64 64.5293C438.333 37.9277 404.425 25.2492 362.127 24.9434C319.66 24.6364 285.79 36.9021 260.447 61.5098C237.875 83.4273 226.732 111.393 219.941 127.771C211.53 148.06 207.855 155.722 203.219 160.607C201.912 161.984 198.268 166.495 180.89 166.495C163.383 166.495 158.381 161.906 155.957 159.514C150.638 154.263 146.172 145.966 137.441 126.622C130.348 110.904 118.863 83.8249 97.8086 62.5928C73.6999 38.2805 41.3365 24.9414 0 24.9414V0H540V166.495Z" fill="#008DD3"/>
</g>
<defs>
<clipPath id="clip0_3_738">
<rect width="1080" height="1080" fill="white"/>
</clipPath>
</defs>
</svg>
