<svg width="350" height="286" viewBox="0 0 350 286" fill="none" xmlns="http://www.w3.org/2000/svg">
<path fill-rule="evenodd" clip-rule="evenodd" d="M0 0H78C114.451 0 144 29.5492 144 66V220C144 256.451 114.451 286 78 286H0L0 0ZM94 66L94 220C94 228.837 86.8366 236 78 236H50L50 50H78C86.8365 50 94 57.1635 94 66Z" fill="black"/>
<path d="M211 67L211 286L161 286L161 67L211 67Z" fill="black"/>
<path fill-rule="evenodd" clip-rule="evenodd" d="M228 222.986C228 257.788 255.311 286 289 286C322.689 286 350 257.788 350 222.986V130.014C350 95.2124 322.689 67 289 67C255.311 67 228 95.2124 228 130.014V222.986ZM300 222.986V130.014C300 123.738 295.075 118.651 289 118.651C282.925 118.651 278 123.738 278 130.014V222.986C278 229.262 282.925 234.349 289 234.349C295.075 234.349 300 229.262 300 222.986Z" fill="black"/>
<path d="M350 -1.65229e-05L350 50L161 50L161 0L350 -1.65229e-05Z" fill="black"/>
</svg>
